<svg width="29" height="35" viewBox="0 0 29 35" fill="none" xmlns="http://www.w3.org/2000/svg">
<path d="M7.23209 34.3445C6.54138 33.8862 5.92967 33.3188 5.42084 32.6645C4.86037 31.9897 4.341 31.2819 3.86553 30.5448C2.75028 28.9104 1.87547 27.1243 1.26787 25.2412C0.53834 23.0537 0.185059 20.957 0.185059 18.9062C0.185059 16.6159 0.680528 14.6165 1.64959 12.9365C2.3688 11.624 3.42477 10.5269 4.70881 9.75807C5.95383 8.98475 7.38438 8.56156 8.84975 8.53307C9.36381 8.53452 9.91433 8.60671 10.5013 8.74963C10.9224 8.86885 11.4354 9.05697 12.0621 9.29104C12.8594 9.59838 13.298 9.7865 13.4468 9.83244C13.9138 10.0031 14.3065 10.0774 14.6149 10.0774C14.849 10.0774 15.1793 10.0031 15.5544 9.88932C15.7655 9.81494 16.1637 9.68369 16.7335 9.43979C17.2979 9.23416 17.7419 9.05807 18.0952 8.92682C18.6366 8.76713 19.1605 8.61947 19.6276 8.5451C20.1813 8.45817 20.7431 8.43505 21.3021 8.47619C22.2709 8.53852 23.2251 8.74382 24.1338 9.08541C25.6202 9.68369 26.8223 10.6178 27.7169 11.9456C27.339 12.1789 26.9841 12.4478 26.6571 12.7484C25.9464 13.3796 25.3405 14.1199 24.8622 14.9413C24.2369 16.0642 23.9132 17.33 23.9227 18.6153C23.9457 20.1935 24.3504 21.5837 25.1477 22.7857C25.7347 23.6759 26.4964 24.4376 27.3866 25.0246C27.8427 25.332 28.2354 25.5431 28.6116 25.6853C28.4355 26.2321 28.2474 26.7615 28.0254 27.2865C27.5228 28.4643 26.9124 29.5931 26.2021 30.6585C25.5699 31.5762 25.0744 32.2598 24.6982 32.7148C24.1119 33.4093 23.5476 33.9398 22.9777 34.3095C22.351 34.7251 21.6105 34.9471 20.858 34.9471C20.3484 34.9666 19.8389 34.9049 19.3487 34.7645C18.9276 34.6223 18.5108 34.4681 18.1007 34.292C17.6745 34.0957 17.2347 33.9301 16.7849 33.7965C15.6731 33.5125 14.508 33.5106 13.3954 33.791C12.9393 33.9223 12.5007 34.0754 12.0676 34.2635C11.4583 34.5195 11.0537 34.6912 10.8196 34.7645C10.3526 34.9012 9.86803 34.9865 9.37803 35.0149C8.62006 35.0149 7.9135 34.7984 7.2135 34.3598L7.23209 34.3445ZM17.229 7.42182C16.238 7.91728 15.2919 8.12838 14.3524 8.05947C14.2047 7.11338 14.3524 6.14541 14.7451 5.08557C15.0801 4.18804 15.574 3.35815 16.203 2.63557C16.8681 1.8755 17.675 1.25246 18.5787 0.801348C19.5404 0.305514 20.4595 0.0379102 21.336 -0.00146484C21.4497 0.989473 21.336 1.964 20.9718 3.01729C20.6344 3.94821 20.1414 4.8151 19.5138 5.58104C18.8736 6.34285 18.0869 6.96843 17.2005 7.42072L17.229 7.42182Z" fill="white"/>
</svg>
