<svg width="36" height="35" viewBox="0 0 36 35" fill="none" xmlns="http://www.w3.org/2000/svg">
<g clip-path="url(#clip0_50_657)">
<path d="M13.1018 1.15099C9.60475 2.36415 6.58891 4.66676 4.49724 7.72061C2.40557 10.7745 1.34834 14.4186 1.48082 18.1177C1.6133 21.8168 2.92852 25.376 5.2333 28.2724C7.53807 31.1687 10.7109 33.2497 14.2858 34.2096C17.184 34.9574 20.2205 34.9903 23.1342 34.3053C25.7738 33.7124 28.2141 32.4442 30.2163 30.6248C32.3001 28.6734 33.8126 26.191 34.5913 23.4444C35.4376 20.4575 35.5882 17.3164 35.0315 14.2623H18.7565V21.0135H28.1819C27.9935 22.0903 27.5898 23.118 26.995 24.0351C26.4002 24.9522 25.6265 25.7399 24.7202 26.351C23.5692 27.1123 22.2718 27.6246 20.9112 27.8549C19.5466 28.1086 18.1469 28.1086 16.7823 27.8549C15.3992 27.5689 14.0908 26.9981 12.9405 26.1787C11.0924 24.8706 9.70482 23.0121 8.97563 20.8686C8.2341 18.6849 8.2341 16.3175 8.97563 14.1338C9.49468 12.6031 10.3527 11.2095 11.4858 10.0569C12.7824 8.71358 14.424 7.75341 16.2303 7.28167C18.0367 6.80993 19.9382 6.84486 21.726 7.38263C23.1227 7.81136 24.3998 8.56043 25.4557 9.57013C26.5185 8.51284 27.5794 7.45282 28.6385 6.39005C29.1854 5.81857 29.7815 5.27443 30.3202 4.68927C28.7084 3.1894 26.8166 2.02232 24.753 1.2549C20.9951 -0.109583 16.8834 -0.146253 13.1018 1.15099Z" fill="white"/>
<path d="M13.1017 1.15134C16.883 -0.146782 20.9947 -0.111078 24.7529 1.25252C26.8168 2.02515 28.7078 3.19785 30.3173 4.7033C29.7705 5.28845 29.1935 5.83533 28.6357 6.40408C27.5748 7.46319 26.5147 8.51866 25.4556 9.57048C24.3997 8.56078 23.1226 7.81171 21.7259 7.38298C19.9387 6.84333 18.0373 6.80638 16.2304 7.27619C14.4236 7.74599 12.781 8.7044 11.483 10.0463C10.3499 11.1989 9.49186 12.5926 8.9728 14.1232L3.30444 9.73455C5.33337 5.71108 8.84634 2.63344 13.1017 1.15134Z" fill="#E33629"/>
<path d="M1.80048 14.082C2.10515 12.5721 2.61096 11.1098 3.30439 9.73438L8.97275 14.134C8.23122 16.3177 8.23122 18.6851 8.97275 20.8688C7.0842 22.3271 5.19475 23.7927 3.30439 25.2656C1.56847 21.8102 1.03905 17.8732 1.80048 14.082Z" fill="#F8BD00"/>
<path d="M18.7563 14.2598H35.0313C35.5881 17.3139 35.4375 20.455 34.5911 23.4418C33.8125 26.1884 32.2999 28.6709 30.2161 30.6223C28.3868 29.1949 26.5493 27.7785 24.72 26.3512C25.6269 25.7394 26.401 24.9509 26.9959 24.0328C27.5907 23.1147 27.994 22.0859 28.1817 21.0082H18.7563C18.7536 18.7605 18.7563 16.5102 18.7563 14.2598Z" fill="#587DBD"/>
<path d="M3.30176 25.2655C5.19212 23.8072 7.08158 22.3416 8.97012 20.8687C9.70076 23.0129 11.0904 24.8715 12.9404 26.1788C14.0944 26.9944 15.4056 27.5606 16.7904 27.8413C18.155 28.095 19.5547 28.095 20.9193 27.8413C22.2799 27.611 23.5774 27.0987 24.7283 26.3374C26.5576 27.7647 28.3951 29.1812 30.2244 30.6085C28.2226 32.4288 25.7822 33.698 23.1424 34.2917C20.2287 34.9767 17.1922 34.9438 14.2939 34.196C12.0017 33.584 9.86064 32.505 8.00488 31.0269C6.04068 29.4674 4.4364 27.5022 3.30176 25.2655Z" fill="#319F43"/>
</g>
<defs>
<clipPath id="clip0_50_657">
<rect x="0.90918" width="35" height="35" rx="17.5" fill="white"/>
</clipPath>
</defs>
</svg>
