<svg width="25" height="25" viewBox="0 0 25 25" fill="none" xmlns="http://www.w3.org/2000/svg">
<path fill-rule="evenodd" clip-rule="evenodd" d="M0 11.1844C0 4.79349 5.82 0 12.5 0C19.18 0 25 4.79349 25 11.1844C25 17.5753 19.18 22.3688 12.5 22.3688C11.8425 22.3688 11.1983 22.3249 10.5675 22.2372L6.9425 24.7793C6.73681 24.9235 6.49513 25.0003 6.24799 25C6.00086 24.9997 5.75936 24.9222 5.55402 24.7775C5.34868 24.6327 5.18871 24.4271 5.09433 24.1867C4.99994 23.9463 4.97538 23.6818 5.02375 23.4267L5.58 20.5043C2.285 18.5398 0 15.1542 0 11.1844Z" fill="black"/>
</svg>
